<svg width="43" height="44" viewBox="0 0 43 44" fill="none" xmlns="http://www.w3.org/2000/svg">
<mask id="mask0_434_2766" style="mask-type:luminance" maskUnits="userSpaceOnUse" x="0" y="0" width="43" height="44">
<path d="M42.8181 0.879883H0.578125V43.1199H42.8181V0.879883Z" fill="white"/>
</mask>
<g mask="url(#mask0_434_2766)">
<path d="M41.4998 22.1319C41.4998 10.3944 32.0486 0.879883 20.3798 0.879883C8.71097 0.882523 -0.740234 10.3944 -0.740234 22.1345C-0.740234 32.7394 6.99497 41.5306 17.0798 43.1252V28.2752H11.7205V22.1345H17.0798V17.4485C17.0798 12.1236 20.2478 9.18268 25.0526 9.18268C27.3758 9.18268 29.7783 9.59716 29.7783 9.59716V14.8244H27.1383C24.4983 14.8244 23.6798 16.4638 23.6798 18.1455V22.1319H29.5405L28.6166 28.2725H23.6798V43.1225C33.791 41.528 41.4998 32.7368 41.4998 22.1319Z" fill="white"/>
</g>
</svg>
