<svg width="94" height="94" viewBox="0 0 94 94" fill="none" xmlns="http://www.w3.org/2000/svg">
<rect width="94" height="94" fill="#FF540B"/>
<path fill-rule="evenodd" clip-rule="evenodd" d="M66.4577 21.6426C67.2167 21.5766 67.9709 21.8145 68.5546 22.3042C69.1383 22.7938 69.5038 23.4951 69.5708 24.254L72.4105 56.6567C72.4578 57.0399 72.4274 57.4287 72.3211 57.7999C72.2149 58.1711 72.0349 58.517 71.7921 58.8172C71.5492 59.1173 71.2484 59.3654 70.9075 59.5468C70.5667 59.7281 70.1928 59.8389 69.8082 59.8726C69.4235 59.9063 69.0361 59.8622 68.6689 59.743C68.3017 59.6237 67.9623 59.4316 67.6709 59.1783C67.3795 58.925 67.1422 58.6156 66.973 58.2686C66.8038 57.9216 66.7062 57.544 66.6861 57.1584L64.4521 31.6683L29.4939 73.3425C29.0039 73.9267 28.3019 74.2923 27.5423 74.3589C26.7827 74.4254 26.0278 74.1875 25.4436 73.6975C24.8594 73.2074 24.4938 72.5054 24.4273 71.7458C24.3607 70.9862 24.5986 70.2313 25.0886 69.6471L60.0468 27.9729L34.5567 30.2069C34.1735 30.2541 33.7847 30.2237 33.4135 30.1175C33.0424 30.0112 32.6964 29.8313 32.3963 29.5884C32.0961 29.3455 31.848 29.0447 31.6667 28.7038C31.4853 28.363 31.3745 27.9891 31.3408 27.6045C31.3071 27.2199 31.3512 26.8324 31.4705 26.4652C31.5898 26.098 31.7818 25.7586 32.0351 25.4672C32.2884 25.1759 32.5978 24.9385 32.9448 24.7693C33.2919 24.6001 33.6694 24.5025 34.055 24.4824L66.4577 21.6426Z" fill="white"/>
</svg>
