<svg width="34" height="34" viewBox="0 0 34 34" fill="none" xmlns="http://www.w3.org/2000/svg">
<circle cx="17" cy="17" r="17" fill="#FFFEFD"/>
<path fill-rule="evenodd" clip-rule="evenodd" d="M27.5738 16.3429C27.7479 16.5172 27.8457 16.7535 27.8457 16.9999C27.8457 17.2462 27.7479 17.4825 27.5738 17.6569L20.1363 25.0944C20.0512 25.1857 19.9486 25.259 19.8345 25.3098C19.7205 25.3606 19.5974 25.3879 19.4725 25.3901C19.3477 25.3923 19.2237 25.3693 19.108 25.3226C18.9922 25.2758 18.887 25.2062 18.7988 25.118C18.7105 25.0297 18.6409 24.9245 18.5941 24.8087C18.5474 24.693 18.5244 24.569 18.5266 24.4442C18.5288 24.3193 18.5561 24.1962 18.6069 24.0822C18.6578 23.9681 18.731 23.8655 18.8224 23.7804L24.6732 17.9296L7.0835 17.9296C6.83693 17.9296 6.60046 17.8316 6.42611 17.6573C6.25176 17.4829 6.15381 17.2464 6.15381 16.9999C6.15381 16.7533 6.25176 16.5168 6.42611 16.3425C6.60046 16.1681 6.83693 16.0702 7.0835 16.0702L24.6732 16.0702L18.8224 10.2194C18.731 10.1342 18.6578 10.0316 18.6069 9.91756C18.5561 9.80352 18.5288 9.68041 18.5266 9.55558C18.5244 9.43076 18.5474 9.30676 18.5941 9.191C18.6409 9.07524 18.7105 8.97008 18.7988 8.8818C18.887 8.79351 18.9922 8.72392 19.108 8.67716C19.2237 8.6304 19.3477 8.60744 19.4725 8.60964C19.5974 8.61184 19.7205 8.63917 19.8345 8.68998C19.9486 8.74079 20.0512 8.81405 20.1363 8.9054L27.5738 16.3429Z" fill="black"/>
</svg>
