<svg width="322" height="76" viewBox="0 0 322 76" fill="none" xmlns="http://www.w3.org/2000/svg">
<g clip-path="url(#clip0_443_1836)">
<path d="M36.6822 -929.02H53.4822L52.9222 -922.5H29.2422L29.8422 -929.22C30.4822 -936.42 35.6022 -937.9 41.9222 -939.34C45.0422 -940.06 46.4022 -940.78 46.4022 -942.14C46.4022 -943.1 45.0822 -943.58 40.6022 -943.58C36.7222 -943.58 32.7622 -942.62 32.7622 -942.62L31.2822 -949.06C33.0022 -949.62 36.9622 -950.14 40.6022 -950.14C46.7622 -950.14 53.2422 -948.26 53.2422 -942.22C53.2422 -936.1 49.0422 -934.26 43.0422 -932.9C37.5622 -931.66 36.9222 -931.5 36.6822 -929.02ZM70.1444 -922.34C61.5844 -922.34 54.9844 -926.7 54.9844 -936.22C54.9844 -945.78 61.5844 -950.14 70.1444 -950.14C78.7044 -950.14 85.3044 -945.78 85.3044 -936.22C85.3044 -926.7 78.7044 -922.34 70.1444 -922.34ZM70.1444 -943.66C63.9444 -943.66 61.8244 -940.34 61.8244 -936.22C61.8244 -932.14 63.9444 -928.82 70.1444 -928.82C76.3844 -928.82 78.4644 -932.14 78.4644 -936.22C78.4644 -940.34 76.3844 -943.66 70.1444 -943.66ZM102.449 -922.34C93.8891 -922.34 87.2891 -926.7 87.2891 -936.22C87.2891 -945.78 93.8891 -950.14 102.449 -950.14C111.009 -950.14 117.609 -945.78 117.609 -936.22C117.609 -926.7 111.009 -922.34 102.449 -922.34ZM102.449 -943.66C96.2491 -943.66 94.1291 -940.34 94.1291 -936.22C94.1291 -932.14 96.2491 -928.82 102.449 -928.82C108.689 -928.82 110.769 -932.14 110.769 -936.22C110.769 -940.34 108.689 -943.66 102.449 -943.66ZM38.6563 -892.58V-899.02L48.8963 -901.78L52.2163 -901.94V-874.5H45.4163V-894.22L38.6563 -892.58ZM68.4588 -902.14C77.0188 -902.14 83.9388 -897.78 83.9388 -888.22C83.9388 -878.7 76.8187 -874.34 68.3388 -874.34C62.4188 -874.34 57.6588 -875.46 57.6588 -875.46L58.6988 -881.7C58.6988 -881.7 63.0988 -880.9 68.3388 -880.9C73.2588 -880.9 75.7388 -882.34 76.6588 -885.18C74.5388 -884.7 71.6188 -884.18 68.9388 -884.18C63.1788 -884.18 55.2188 -885.74 55.2188 -892.86C55.2188 -899.74 62.6588 -902.14 68.4588 -902.14ZM68.9388 -890.3C71.5388 -890.3 74.6188 -890.86 76.6988 -891.3C75.8188 -894.14 73.3788 -895.58 68.4588 -895.58C63.9788 -895.58 62.0588 -894.9 62.0588 -892.86C62.0588 -890.82 64.4588 -890.3 68.9388 -890.3ZM101.394 -874.34C92.8344 -874.34 86.2344 -878.7 86.2344 -888.22C86.2344 -897.78 92.8344 -902.14 101.394 -902.14C109.954 -902.14 116.554 -897.78 116.554 -888.22C116.554 -878.7 109.954 -874.34 101.394 -874.34ZM101.394 -895.66C95.1944 -895.66 93.0744 -892.34 93.0744 -888.22C93.0744 -884.14 95.1944 -880.82 101.394 -880.82C107.634 -880.82 109.714 -884.14 109.714 -888.22C109.714 -892.34 107.634 -895.66 101.394 -895.66ZM38.6563 -844.58V-851.02L48.8963 -853.78L52.2163 -853.94V-826.5H45.4163V-846.22L38.6563 -844.58ZM68.4188 -826.34C63.2188 -826.34 55.2188 -827.82 55.2188 -834.34C55.2188 -837.5 56.8587 -839.3 59.1388 -840.34C57.0188 -841.34 55.4988 -843.18 55.4988 -846.42C55.4988 -853.34 63.2188 -854.14 68.4188 -854.14C73.6588 -854.14 81.3388 -853.34 81.3388 -846.42C81.3388 -843.18 79.8188 -841.34 77.6988 -840.34C79.9788 -839.3 81.6188 -837.5 81.6188 -834.34C81.6188 -827.82 73.6588 -826.34 68.4188 -826.34ZM68.4188 -837.5C64.5388 -837.5 62.0588 -837.3 62.0588 -835.06C62.0588 -833.22 64.5388 -832.9 68.4188 -832.9C72.3388 -832.9 74.7787 -833.22 74.7787 -835.06C74.7787 -837.3 72.3388 -837.5 68.4188 -837.5ZM68.4188 -847.58C64.5388 -847.58 62.3388 -847.18 62.3388 -845.7C62.3388 -843.86 64.5388 -843.66 68.4188 -843.66C72.3388 -843.66 74.4988 -843.86 74.4988 -845.7C74.4988 -847.18 72.3388 -847.58 68.4188 -847.58ZM98.7772 -826.34C90.2172 -826.34 83.6172 -830.7 83.6172 -840.22C83.6172 -849.78 90.2172 -854.14 98.7772 -854.14C107.337 -854.14 113.937 -849.78 113.937 -840.22C113.937 -830.7 107.337 -826.34 98.7772 -826.34ZM98.7772 -847.66C92.5772 -847.66 90.4572 -844.34 90.4572 -840.22C90.4572 -836.14 92.5772 -832.82 98.7772 -832.82C105.017 -832.82 107.097 -836.14 107.097 -840.22C107.097 -844.34 105.017 -847.66 98.7772 -847.66ZM48.0703 -796.58V-803.02L58.3103 -805.78L61.6303 -805.94V-778.5H54.8303V-798.22L48.0703 -796.58ZM86.7128 -806.02L86.1528 -799.58C83.5528 -793.74 81.2728 -787.54 79.5128 -779.14L79.3528 -778.5H72.3128L72.4328 -779.1C74.1928 -787.5 76.5928 -793.66 79.1928 -799.5H64.5928L65.1928 -806.02H86.7128ZM102.762 -778.34C94.2016 -778.34 87.6016 -782.7 87.6016 -792.22C87.6016 -801.78 94.2016 -806.14 102.762 -806.14C111.322 -806.14 117.922 -801.78 117.922 -792.22C117.922 -782.7 111.322 -778.34 102.762 -778.34ZM102.762 -799.66C96.5616 -799.66 94.4416 -796.34 94.4416 -792.22C94.4416 -788.14 96.5616 -784.82 102.762 -784.82C109.002 -784.82 111.082 -788.14 111.082 -792.22C111.082 -796.34 109.002 -799.66 102.762 -799.66ZM38.6563 -748.58V-755.02L48.8963 -757.78L52.2163 -757.94V-730.5H45.4163V-750.22L38.6563 -748.58ZM70.5788 -730.34C62.0188 -730.34 55.2188 -734.7 55.2188 -744.22C55.2188 -753.78 62.1788 -758.14 70.2588 -758.14C76.1788 -758.14 80.2588 -756.86 80.2588 -756.86L79.2188 -750.66C79.2188 -750.66 74.8588 -751.58 70.2588 -751.58C65.0988 -751.58 63.0588 -750.14 62.3388 -747.34C64.4987 -747.86 67.4988 -748.46 70.2188 -748.46C76.3788 -748.46 84.2188 -746.86 84.2188 -739.78C84.2188 -732.9 76.7388 -730.34 70.5788 -730.34ZM70.2188 -742.3C67.5388 -742.3 64.3788 -741.58 62.3388 -741.02C63.0188 -738.3 65.0988 -736.9 70.5788 -736.9C75.4188 -736.9 77.3788 -737.7 77.3788 -739.78C77.3788 -741.82 75.0988 -742.3 70.2188 -742.3ZM101.355 -730.34C92.7953 -730.34 86.1953 -734.7 86.1953 -744.22C86.1953 -753.78 92.7953 -758.14 101.355 -758.14C109.915 -758.14 116.515 -753.78 116.515 -744.22C116.515 -734.7 109.915 -730.34 101.355 -730.34ZM101.355 -751.66C95.1553 -751.66 93.0353 -748.34 93.0353 -744.22C93.0353 -740.14 95.1553 -736.82 101.355 -736.82C107.595 -736.82 109.675 -740.14 109.675 -744.22C109.675 -748.34 107.595 -751.66 101.355 -751.66ZM38.6563 -700.58V-707.02L48.8963 -709.78L52.2163 -709.94V-682.5H45.4163V-702.22L38.6563 -700.58ZM56.5256 -692.62L58.1656 -710.02H78.1256L77.5656 -703.5H64.3256L64.0056 -700.06C65.1656 -700.26 66.2856 -700.38 67.4056 -700.38C73.1656 -700.38 80.7256 -698.74 80.7256 -691.62C80.7256 -684.5 72.7256 -682.34 66.5656 -682.34C61.9256 -682.34 59.0056 -682.98 55.7656 -684.26L57.5656 -690.42C59.6056 -689.66 62.8056 -688.9 66.5656 -688.9C71.4056 -688.9 73.8856 -689.58 73.8856 -691.62C73.8856 -693.3 71.4056 -693.78 66.5656 -693.78C63.7256 -693.78 60.0456 -693.14 58.2456 -692.62H56.5256ZM97.8788 -682.34C89.3188 -682.34 82.7188 -686.7 82.7188 -696.22C82.7188 -705.78 89.3188 -710.14 97.8788 -710.14C106.439 -710.14 113.039 -705.78 113.039 -696.22C113.039 -686.7 106.439 -682.34 97.8788 -682.34ZM97.8788 -703.66C91.6788 -703.66 89.5588 -700.34 89.5588 -696.22C89.5588 -692.14 91.6788 -688.82 97.8788 -688.82C104.119 -688.82 106.199 -692.14 106.199 -696.22C106.199 -700.34 104.119 -703.66 97.8788 -703.66ZM38.6563 -652.58V-659.02L48.8963 -661.78L52.2163 -661.94V-634.5H45.4163V-654.22L38.6563 -652.58ZM55.7788 -646.06L70.2588 -661.62L75.1388 -661.9V-646.06H78.7788L78.2188 -639.54H75.1388V-634.5H68.2988V-639.54H55.2188V-639.78L55.7788 -646.06ZM68.2988 -646.06V-650.7L64.0988 -646.06H68.2988ZM95.3788 -634.34C86.8188 -634.34 80.2188 -638.7 80.2188 -648.22C80.2188 -657.78 86.8188 -662.14 95.3788 -662.14C103.939 -662.14 110.539 -657.78 110.539 -648.22C110.539 -638.7 103.939 -634.34 95.3788 -634.34ZM95.3788 -655.66C89.1788 -655.66 87.0588 -652.34 87.0588 -648.22C87.0588 -644.14 89.1788 -640.82 95.3788 -640.82C101.619 -640.82 103.699 -644.14 103.699 -648.22C103.699 -652.34 101.619 -655.66 95.3788 -655.66ZM38.6563 -604.58V-611.02L48.8963 -613.78L52.2163 -613.94V-586.5H45.4163V-606.22L38.6563 -604.58ZM63.0188 -603.7H66.0988C70.9388 -603.7 73.0588 -604.54 73.0588 -605.86C73.0588 -607.14 71.0188 -607.58 66.1788 -607.58C62.4988 -607.58 57.4188 -606.66 57.4188 -606.66L56.4588 -613.1C56.4588 -613.1 60.6588 -614.14 66.1788 -614.14C72.3388 -614.14 79.8988 -612.86 79.8988 -606.46C79.8988 -603.5 78.4588 -601.7 76.3788 -600.62C78.4988 -599.46 79.8988 -597.58 79.8988 -594.54C79.8988 -587.66 72.0188 -586.34 65.8588 -586.34C59.9388 -586.34 55.2188 -587.78 55.2188 -587.78L56.3388 -594.14C56.3388 -594.14 60.7388 -592.9 65.8588 -592.9C70.7388 -592.9 73.0588 -593.3 73.0588 -595.34C73.0588 -597.42 70.9388 -597.38 66.0988 -597.38H62.4988L63.0188 -603.7ZM97.0584 -586.34C88.4984 -586.34 81.8984 -590.7 81.8984 -600.22C81.8984 -609.78 88.4984 -614.14 97.0584 -614.14C105.618 -614.14 112.218 -609.78 112.218 -600.22C112.218 -590.7 105.618 -586.34 97.0584 -586.34ZM97.0584 -607.66C90.8584 -607.66 88.7384 -604.34 88.7384 -600.22C88.7384 -596.14 90.8584 -592.82 97.0584 -592.82C103.298 -592.82 105.378 -596.14 105.378 -600.22C105.378 -604.34 103.298 -607.66 97.0584 -607.66ZM38.6563 -556.58V-563.02L48.8963 -565.78L52.2163 -565.94V-538.5H45.4163V-558.22L38.6563 -556.58ZM62.6588 -545.02H79.4588L78.8988 -538.5H55.2188L55.8188 -545.22C56.4588 -552.42 61.5788 -553.9 67.8988 -555.34C71.0188 -556.06 72.3788 -556.78 72.3788 -558.14C72.3788 -559.1 71.0588 -559.58 66.5788 -559.58C62.6988 -559.58 58.7388 -558.62 58.7388 -558.62L57.2588 -565.06C58.9788 -565.62 62.9388 -566.14 66.5788 -566.14C72.7388 -566.14 79.2188 -564.26 79.2188 -558.22C79.2188 -552.1 75.0188 -550.26 69.0188 -548.9C63.5388 -547.66 62.8988 -547.5 62.6588 -545.02ZM96.1209 -538.34C87.5609 -538.34 80.9609 -542.7 80.9609 -552.22C80.9609 -561.78 87.5609 -566.14 96.1209 -566.14C104.681 -566.14 111.281 -561.78 111.281 -552.22C111.281 -542.7 104.681 -538.34 96.1209 -538.34ZM96.1209 -559.66C89.9209 -559.66 87.8009 -556.34 87.8009 -552.22C87.8009 -548.14 89.9209 -544.82 96.1209 -544.82C102.361 -544.82 104.441 -548.14 104.441 -552.22C104.441 -556.34 102.361 -559.66 96.1209 -559.66ZM48.0703 -508.58V-515.02L58.3103 -517.78L61.6303 -517.94V-490.5H54.8303V-510.22L48.0703 -508.58ZM64.6328 -508.58V-515.02L74.8728 -517.78L78.1928 -517.94V-490.5H71.3928V-510.22L64.6328 -508.58ZM96.3553 -490.34C87.7953 -490.34 81.1953 -494.7 81.1953 -504.22C81.1953 -513.78 87.7953 -518.14 96.3553 -518.14C104.915 -518.14 111.515 -513.78 111.515 -504.22C111.515 -494.7 104.915 -490.34 96.3553 -490.34ZM96.3553 -511.66C90.1553 -511.66 88.0353 -508.34 88.0353 -504.22C88.0353 -500.14 90.1553 -496.82 96.3553 -496.82C102.595 -496.82 104.675 -500.14 104.675 -504.22C104.675 -508.34 102.595 -511.66 96.3553 -511.66ZM29.2422 -460.58V-467.02L39.4822 -469.78L42.8022 -469.94V-442.5H36.0022V-462.22L29.2422 -460.58ZM60.9647 -442.34C52.4047 -442.34 45.8047 -446.7 45.8047 -456.22C45.8047 -465.78 52.4047 -470.14 60.9647 -470.14C69.5247 -470.14 76.1247 -465.78 76.1247 -456.22C76.1247 -446.7 69.5247 -442.34 60.9647 -442.34ZM60.9647 -463.66C54.7647 -463.66 52.6447 -460.34 52.6447 -456.22C52.6447 -452.14 54.7647 -448.82 60.9647 -448.82C67.2047 -448.82 69.2847 -452.14 69.2847 -456.22C69.2847 -460.34 67.2047 -463.66 60.9647 -463.66ZM93.2694 -442.34C84.7094 -442.34 78.1094 -446.7 78.1094 -456.22C78.1094 -465.78 84.7094 -470.14 93.2694 -470.14C101.829 -470.14 108.429 -465.78 108.429 -456.22C108.429 -446.7 101.829 -442.34 93.2694 -442.34ZM93.2694 -463.66C87.0694 -463.66 84.9494 -460.34 84.9494 -456.22C84.9494 -452.14 87.0694 -448.82 93.2694 -448.82C99.5094 -448.82 101.589 -452.14 101.589 -456.22C101.589 -460.34 99.5094 -463.66 93.2694 -463.66ZM61.3103 -422.14C69.8703 -422.14 76.7903 -417.78 76.7903 -408.22C76.7903 -398.7 69.6703 -394.34 61.1903 -394.34C55.2703 -394.34 50.5103 -395.46 50.5103 -395.46L51.5503 -401.7C51.5503 -401.7 55.9503 -400.9 61.1903 -400.9C66.1103 -400.9 68.5903 -402.34 69.5103 -405.18C67.3903 -404.7 64.4703 -404.18 61.7903 -404.18C56.0303 -404.18 48.0703 -405.74 48.0703 -412.86C48.0703 -419.74 55.5103 -422.14 61.3103 -422.14ZM61.7903 -410.3C64.3903 -410.3 67.4703 -410.86 69.5503 -411.3C68.6703 -414.14 66.2303 -415.58 61.3103 -415.58C56.8303 -415.58 54.9103 -414.9 54.9103 -412.86C54.9103 -410.82 57.3103 -410.3 61.7903 -410.3ZM94.2459 -394.34C85.6859 -394.34 79.0859 -398.7 79.0859 -408.22C79.0859 -417.78 85.6859 -422.14 94.2459 -422.14C102.806 -422.14 109.406 -417.78 109.406 -408.22C109.406 -398.7 102.806 -394.34 94.2459 -394.34ZM94.2459 -415.66C88.0459 -415.66 85.9259 -412.34 85.9259 -408.22C85.9259 -404.14 88.0459 -400.82 94.2459 -400.82C100.486 -400.82 102.566 -404.14 102.566 -408.22C102.566 -412.34 100.486 -415.66 94.2459 -415.66ZM61.2703 -346.34C56.0703 -346.34 48.0703 -347.82 48.0703 -354.34C48.0703 -357.5 49.7103 -359.3 51.9903 -360.34C49.8703 -361.34 48.3503 -363.18 48.3503 -366.42C48.3503 -373.34 56.0703 -374.14 61.2703 -374.14C66.5103 -374.14 74.1903 -373.34 74.1903 -366.42C74.1903 -363.18 72.6703 -361.34 70.5503 -360.34C72.8303 -359.3 74.4703 -357.5 74.4703 -354.34C74.4703 -347.82 66.5103 -346.34 61.2703 -346.34ZM61.2703 -357.5C57.3903 -357.5 54.9103 -357.3 54.9103 -355.06C54.9103 -353.22 57.3903 -352.9 61.2703 -352.9C65.1903 -352.9 67.6303 -353.22 67.6303 -355.06C67.6303 -357.3 65.1903 -357.5 61.2703 -357.5ZM61.2703 -367.58C57.3903 -367.58 55.1903 -367.18 55.1903 -365.7C55.1903 -363.86 57.3903 -363.66 61.2703 -363.66C65.1903 -363.66 67.3503 -363.86 67.3503 -365.7C67.3503 -367.18 65.1903 -367.58 61.2703 -367.58ZM91.6288 -346.34C83.0688 -346.34 76.4688 -350.7 76.4688 -360.22C76.4688 -369.78 83.0688 -374.14 91.6288 -374.14C100.189 -374.14 106.789 -369.78 106.789 -360.22C106.789 -350.7 100.189 -346.34 91.6288 -346.34ZM91.6288 -367.66C85.4288 -367.66 83.3088 -364.34 83.3088 -360.22C83.3088 -356.14 85.4288 -352.82 91.6288 -352.82C97.8688 -352.82 99.9488 -356.14 99.9488 -360.22C99.9488 -364.34 97.8688 -367.66 91.6288 -367.66ZM79.5644 -326.02L79.0044 -319.58C76.4044 -313.74 74.1244 -307.54 72.3644 -299.14L72.2044 -298.5H65.1644L65.2844 -299.1C67.0444 -307.5 69.4444 -313.66 72.0444 -319.5H57.4444L58.0444 -326.02H79.5644ZM95.6131 -298.34C87.0531 -298.34 80.4531 -302.7 80.4531 -312.22C80.4531 -321.78 87.0531 -326.14 95.6131 -326.14C104.173 -326.14 110.773 -321.78 110.773 -312.22C110.773 -302.7 104.173 -298.34 95.6131 -298.34ZM95.6131 -319.66C89.4131 -319.66 87.2931 -316.34 87.2931 -312.22C87.2931 -308.14 89.4131 -304.82 95.6131 -304.82C101.853 -304.82 103.933 -308.14 103.933 -312.22C103.933 -316.34 101.853 -319.66 95.6131 -319.66ZM63.4303 -250.34C54.8703 -250.34 48.0703 -254.7 48.0703 -264.22C48.0703 -273.78 55.0303 -278.14 63.1103 -278.14C69.0303 -278.14 73.1103 -276.86 73.1103 -276.86L72.0703 -270.66C72.0703 -270.66 67.7103 -271.58 63.1103 -271.58C57.9503 -271.58 55.9103 -270.14 55.1903 -267.34C57.3503 -267.86 60.3503 -268.46 63.0703 -268.46C69.2303 -268.46 77.0703 -266.86 77.0703 -259.78C77.0703 -252.9 69.5903 -250.34 63.4303 -250.34ZM63.0703 -262.3C60.3903 -262.3 57.2303 -261.58 55.1903 -261.02C55.8703 -258.3 57.9503 -256.9 63.4303 -256.9C68.2703 -256.9 70.2303 -257.7 70.2303 -259.78C70.2303 -261.82 67.9503 -262.3 63.0703 -262.3ZM94.2069 -250.34C85.6469 -250.34 79.0469 -254.7 79.0469 -264.22C79.0469 -273.78 85.6469 -278.14 94.2069 -278.14C102.767 -278.14 109.367 -273.78 109.367 -264.22C109.367 -254.7 102.767 -250.34 94.2069 -250.34ZM94.2069 -271.66C88.0069 -271.66 85.8869 -268.34 85.8869 -264.22C85.8869 -260.14 88.0069 -256.82 94.2069 -256.82C100.447 -256.82 102.527 -260.14 102.527 -264.22C102.527 -268.34 100.447 -271.66 94.2069 -271.66ZM48.8303 -212.62L50.4703 -230.02H70.4303L69.8703 -223.5H56.6303L56.3103 -220.06C57.4703 -220.26 58.5903 -220.38 59.7103 -220.38C65.4703 -220.38 73.0303 -218.74 73.0303 -211.62C73.0303 -204.5 65.0303 -202.34 58.8703 -202.34C54.2303 -202.34 51.3103 -202.98 48.0703 -204.26L49.8703 -210.42C51.9103 -209.66 55.1103 -208.9 58.8703 -208.9C63.7103 -208.9 66.1903 -209.58 66.1903 -211.62C66.1903 -213.3 63.7103 -213.78 58.8703 -213.78C56.0303 -213.78 52.3503 -213.14 50.5503 -212.62H48.8303ZM90.1834 -202.34C81.6234 -202.34 75.0234 -206.7 75.0234 -216.22C75.0234 -225.78 81.6234 -230.14 90.1834 -230.14C98.7434 -230.14 105.343 -225.78 105.343 -216.22C105.343 -206.7 98.7434 -202.34 90.1834 -202.34ZM90.1834 -223.66C83.9834 -223.66 81.8634 -220.34 81.8634 -216.22C81.8634 -212.14 83.9834 -208.82 90.1834 -208.82C96.4234 -208.82 98.5034 -212.14 98.5034 -216.22C98.5034 -220.34 96.4234 -223.66 90.1834 -223.66ZM48.6303 -166.06L63.1103 -181.62L67.9903 -181.9V-166.06H71.6303L71.0703 -159.54H67.9903V-154.5H61.1503V-159.54H48.0703V-159.78L48.6303 -166.06ZM61.1503 -166.06V-170.7L56.9503 -166.06H61.1503ZM88.2303 -154.34C79.6703 -154.34 73.0703 -158.7 73.0703 -168.22C73.0703 -177.78 79.6703 -182.14 88.2303 -182.14C96.7903 -182.14 103.39 -177.78 103.39 -168.22C103.39 -158.7 96.7903 -154.34 88.2303 -154.34ZM88.2303 -175.66C82.0303 -175.66 79.9103 -172.34 79.9103 -168.22C79.9103 -164.14 82.0303 -160.82 88.2303 -160.82C94.4703 -160.82 96.5503 -164.14 96.5503 -168.22C96.5503 -172.34 94.4703 -175.66 88.2303 -175.66ZM55.8703 -123.7H58.9503C63.7903 -123.7 65.9103 -124.54 65.9103 -125.86C65.9103 -127.14 63.8703 -127.58 59.0303 -127.58C55.3503 -127.58 50.2703 -126.66 50.2703 -126.66L49.3103 -133.1C49.3103 -133.1 53.5103 -134.14 59.0303 -134.14C65.1903 -134.14 72.7503 -132.86 72.7503 -126.46C72.7503 -123.5 71.3103 -121.7 69.2303 -120.62C71.3503 -119.46 72.7503 -117.58 72.7503 -114.54C72.7503 -107.66 64.8703 -106.34 58.7103 -106.34C52.7903 -106.34 48.0703 -107.78 48.0703 -107.78L49.1903 -114.14C49.1903 -114.14 53.5903 -112.9 58.7103 -112.9C63.5903 -112.9 65.9103 -113.3 65.9103 -115.34C65.9103 -117.42 63.7903 -117.38 58.9503 -117.38H55.3503L55.8703 -123.7ZM89.91 -106.34C81.35 -106.34 74.75 -110.7 74.75 -120.22C74.75 -129.78 81.35 -134.14 89.91 -134.14C98.47 -134.14 105.07 -129.78 105.07 -120.22C105.07 -110.7 98.47 -106.34 89.91 -106.34ZM89.91 -127.66C83.71 -127.66 81.59 -124.34 81.59 -120.22C81.59 -116.14 83.71 -112.82 89.91 -112.82C96.15 -112.82 98.23 -116.14 98.23 -120.22C98.23 -124.34 96.15 -127.66 89.91 -127.66ZM55.5103 -65.02H72.3103L71.7503 -58.5H48.0703L48.6703 -65.22C49.3103 -72.42 54.4303 -73.9 60.7503 -75.34C63.8703 -76.06 65.2303 -76.78 65.2303 -78.14C65.2303 -79.1 63.9103 -79.58 59.4303 -79.58C55.5503 -79.58 51.5903 -78.62 51.5903 -78.62L50.1103 -85.06C51.8303 -85.62 55.7903 -86.14 59.4303 -86.14C65.5903 -86.14 72.0703 -84.26 72.0703 -78.22C72.0703 -72.1 67.8703 -70.26 61.8703 -68.9C56.3903 -67.66 55.7503 -67.5 55.5103 -65.02ZM88.9725 -58.34C80.4125 -58.34 73.8125 -62.7 73.8125 -72.22C73.8125 -81.78 80.4125 -86.14 88.9725 -86.14C97.5325 -86.14 104.133 -81.78 104.133 -72.22C104.133 -62.7 97.5325 -58.34 88.9725 -58.34ZM88.9725 -79.66C82.7725 -79.66 80.6525 -76.34 80.6525 -72.22C80.6525 -68.14 82.7725 -64.82 88.9725 -64.82C95.2125 -64.82 97.2925 -68.14 97.2925 -72.22C97.2925 -76.34 95.2125 -79.66 88.9725 -79.66ZM57.4844 -28.58V-35.02L67.7244 -37.78L71.0444 -37.94V-10.5H64.2444V-30.22L57.4844 -28.58ZM89.2069 -10.34C80.6469 -10.34 74.0469 -14.7 74.0469 -24.22C74.0469 -33.78 80.6469 -38.14 89.2069 -38.14C97.7669 -38.14 104.367 -33.78 104.367 -24.22C104.367 -14.7 97.7669 -10.34 89.2069 -10.34ZM89.2069 -31.66C83.0069 -31.66 80.8869 -28.34 80.8869 -24.22C80.8869 -20.14 83.0069 -16.82 89.2069 -16.82C95.4469 -16.82 97.5269 -20.14 97.5269 -24.22C97.5269 -28.34 95.4469 -31.66 89.2069 -31.66ZM91.4725 37.66C82.9125 37.66 76.3125 33.3 76.3125 23.78C76.3125 14.22 82.9125 9.86 91.4725 9.86C100.033 9.86 106.633 14.22 106.633 23.78C106.633 33.3 100.033 37.66 91.4725 37.66ZM91.4725 16.34C85.2725 16.34 83.1525 19.66 83.1525 23.78C83.1525 27.86 85.2725 31.18 91.4725 31.18C97.7125 31.18 99.7925 27.86 99.7925 23.78C99.7925 19.66 97.7125 16.34 91.4725 16.34Z" fill="white"/>
<path d="M146.568 -937.62V-931.62H141.288V-926.34H135.288V-931.62H130.008V-937.62H135.288V-942.9H141.288V-937.62H146.568ZM145.513 -889.62V-883.62H140.233V-878.34H134.233V-883.62H128.953V-889.62H134.233V-894.9H140.233V-889.62H145.513ZM142.896 -841.62V-835.62H137.616V-830.34H131.616V-835.62H126.336V-841.62H131.616V-846.9H137.616V-841.62H142.896ZM146.88 -793.62V-787.62H141.6V-782.34H135.6V-787.62H130.32V-793.62H135.6V-798.9H141.6V-793.62H146.88ZM145.474 -745.62V-739.62H140.194V-734.34H134.194V-739.62H128.914V-745.62H134.194V-750.9H140.194V-745.62H145.474ZM141.998 -697.62V-691.62H136.718V-686.34H130.718V-691.62H125.438V-697.62H130.718V-702.9H136.718V-697.62H141.998ZM139.498 -649.62V-643.62H134.218V-638.34H128.218V-643.62H122.938V-649.62H128.218V-654.9H134.218V-649.62H139.498ZM141.177 -601.62V-595.62H135.897V-590.34H129.897V-595.62H124.617V-601.62H129.897V-606.9H135.897V-601.62H141.177ZM140.24 -553.62V-547.62H134.96V-542.34H128.96V-547.62H123.68V-553.62H128.96V-558.9H134.96V-553.62H140.24ZM140.474 -505.62V-499.62H135.194V-494.34H129.194V-499.62H123.914V-505.62H129.194V-510.9H135.194V-505.62H140.474ZM137.388 -457.62V-451.62H132.108V-446.34H126.108V-451.62H120.828V-457.62H126.108V-462.9H132.108V-457.62H137.388ZM138.365 -409.62V-403.62H133.085V-398.34H127.085V-403.62H121.805V-409.62H127.085V-414.9H133.085V-409.62H138.365ZM135.748 -361.62V-355.62H130.468V-350.34H124.468V-355.62H119.188V-361.62H124.468V-366.9H130.468V-361.62H135.748ZM139.732 -313.62V-307.62H134.452V-302.34H128.452V-307.62H123.172V-313.62H128.452V-318.9H134.452V-313.62H139.732ZM138.326 -265.62V-259.62H133.046V-254.34H127.046V-259.62H121.766V-265.62H127.046V-270.9H133.046V-265.62H138.326ZM134.302 -217.62V-211.62H129.022V-206.34H123.022V-211.62H117.742V-217.62H123.022V-222.9H129.022V-217.62H134.302ZM132.349 -169.62V-163.62H127.069V-158.34H121.069V-163.62H115.789V-169.62H121.069V-174.9H127.069V-169.62H132.349ZM134.029 -121.62V-115.62H128.749V-110.34H122.749V-115.62H117.469V-121.62H122.749V-126.9H128.749V-121.62H134.029ZM133.091 -73.62V-67.62H127.811V-62.34H121.811V-67.62H116.531V-73.62H121.811V-78.9H127.811V-73.62H133.091ZM133.326 -25.62V-19.62H128.046V-14.34H122.046V-19.62H116.766V-25.62H122.046V-30.9H128.046V-25.62H133.326ZM135.591 22.38V28.38H130.311V33.66H124.311V28.38H119.031V22.38H124.311V17.1H130.311V22.38H135.591Z" fill="#FF540B"/>
</g>
<path d="M20.544 59.476H30.816L30.688 60.964H26.416V70.5H24.816V60.964H20.416L20.544 59.476ZM34.0664 62.324C35.1704 62.324 36.3864 62.772 37.1224 63.108L37.2504 62.484L38.6104 62.564V70.5H37.2504L37.1384 69.812C36.3544 70.212 35.2344 70.564 34.1144 70.564C31.3624 70.564 29.6344 68.9 29.6344 66.436C29.6344 63.988 31.3304 62.324 34.0664 62.324ZM34.2584 69.044C35.2664 69.044 36.3704 68.676 36.9944 68.436V64.5C36.1784 64.116 35.0264 63.844 34.2584 63.844C31.7784 63.844 31.2504 65.108 31.2504 66.436C31.2504 67.764 31.7784 69.044 34.2584 69.044ZM40.441 70.5V59.492L42.041 59.396V70.5H40.441ZM51.7078 66.052C51.7078 66.66 51.6438 67.316 51.6438 67.316L44.9718 67.284C45.2438 68.26 46.0598 69.044 47.8838 69.044C48.9558 69.044 50.0438 68.82 50.6998 68.596L51.1638 70.004C50.4758 70.324 49.1158 70.564 47.8518 70.564C45.0998 70.564 43.2438 68.9 43.2438 66.436C43.2438 63.988 45.0038 62.324 47.7558 62.324C49.8038 62.324 51.7078 63.54 51.7078 66.052ZM47.8038 63.844C45.9318 63.844 45.1158 64.74 44.9078 65.796L50.0758 65.764C50.0598 64.372 49.0838 63.844 47.8038 63.844ZM52.9094 70.5V62.564L54.2694 62.484L54.3814 63.108C55.1494 62.772 56.4934 62.324 57.5814 62.324C60.1414 62.324 61.6934 63.652 61.6934 66.004V70.5H60.0934L60.0774 66.004C60.0774 64.628 59.6934 63.844 57.4054 63.844C56.6534 63.844 55.3734 64.116 54.5254 64.484V70.5H52.9094ZM65.3265 60.564V62.452H68.8945L68.7505 63.94H65.3265V67.636C65.3265 68.82 65.9505 69.044 67.3105 69.044C68.2385 69.044 68.9745 68.916 68.9745 68.916L69.1345 70.404C69.1345 70.404 68.2705 70.564 67.2145 70.564C65.5185 70.564 63.7265 70.1 63.7265 67.636V63.94H62.4625L62.5905 62.452H63.8065L64.3345 60.676L65.3265 60.564ZM86.8009 70.5L86.7849 66.004C86.7849 64.628 86.4009 63.844 84.5609 63.844C83.9049 63.844 82.8489 64.052 82.0329 64.356C82.2249 64.82 82.3209 65.38 82.3209 66.004V70.5H80.7049V66.004C80.7049 64.628 80.3209 63.844 78.4809 63.844C77.7289 63.844 76.5449 64.116 75.7129 64.484V70.5H74.0969V62.564L75.4569 62.452L75.5689 63.108C76.3209 62.772 77.5529 62.324 78.6569 62.324C79.7449 62.324 80.6409 62.644 81.2809 63.236C81.9689 62.884 83.5049 62.324 84.7529 62.324C87.0089 62.324 88.4009 63.652 88.4009 66.004V70.5H86.8009ZM94.0351 62.324C95.1391 62.324 96.3551 62.772 97.0911 63.108L97.2191 62.484L98.5791 62.564V70.5H97.2191L97.1071 69.812C96.3231 70.212 95.2031 70.564 94.0831 70.564C91.3311 70.564 89.6031 68.9 89.6031 66.436C89.6031 63.988 91.2991 62.324 94.0351 62.324ZM94.2271 69.044C95.2351 69.044 96.3391 68.676 96.9631 68.436V64.5C96.1471 64.116 94.9951 63.844 94.2271 63.844C91.7471 63.844 91.2191 65.108 91.2191 66.436C91.2191 67.764 91.7471 69.044 94.2271 69.044ZM100.394 70.5V62.564L101.754 62.484L101.866 63.108C102.634 62.772 103.978 62.324 105.066 62.324C107.626 62.324 109.178 63.652 109.178 66.004V70.5H107.578L107.562 66.004C107.562 64.628 107.178 63.844 104.89 63.844C104.138 63.844 102.858 64.116 102.01 64.484V70.5H100.394ZM114.816 62.324C115.92 62.324 117.136 62.772 117.872 63.108L118 62.484L119.36 62.564V70.5H118L117.888 69.812C117.104 70.212 115.984 70.564 114.864 70.564C112.112 70.564 110.384 68.9 110.384 66.436C110.384 63.988 112.08 62.324 114.816 62.324ZM115.008 69.044C116.016 69.044 117.12 68.676 117.744 68.436V64.5C116.928 64.116 115.776 63.844 115.008 63.844C112.528 63.844 112 65.108 112 66.436C112 67.764 112.528 69.044 115.008 69.044ZM124.988 62.324C126.092 62.324 127.308 62.772 128.044 63.108L128.156 62.484L129.516 62.564V70.116C129.516 72.676 127.772 73.796 125.02 73.796C123.74 73.796 122.46 73.636 121.388 73.316L121.724 71.876C122.476 72.052 123.948 72.292 125.02 72.292C127.244 72.292 127.916 71.54 127.916 70.116V69.892C127.132 70.26 126.076 70.564 125.036 70.564C122.284 70.564 120.556 68.9 120.556 66.436C120.556 63.988 122.236 62.324 124.988 62.324ZM125.18 69.044C126.172 69.044 127.292 68.676 127.916 68.436V64.5C127.1 64.116 125.948 63.844 125.18 63.844C122.7 63.844 122.172 65.108 122.172 66.436C122.172 67.764 122.7 69.044 125.18 69.044ZM139.192 66.052C139.192 66.66 139.128 67.316 139.128 67.316L132.456 67.284C132.728 68.26 133.544 69.044 135.368 69.044C136.44 69.044 137.528 68.82 138.184 68.596L138.648 70.004C137.96 70.324 136.6 70.564 135.336 70.564C132.584 70.564 130.728 68.9 130.728 66.436C130.728 63.988 132.488 62.324 135.24 62.324C137.288 62.324 139.192 63.54 139.192 66.052ZM135.288 63.844C133.416 63.844 132.6 64.74 132.392 65.796L137.56 65.764C137.544 64.372 136.568 63.844 135.288 63.844ZM148.954 59.492V70.5H147.61L147.498 69.812C146.714 70.212 145.578 70.564 144.458 70.564C141.722 70.564 139.994 68.9 139.994 66.436C139.994 63.988 141.674 62.324 144.426 62.324C145.466 62.324 146.602 62.724 147.354 63.044V59.396L148.954 59.492ZM144.618 69.044C145.626 69.044 146.746 68.676 147.354 68.436V64.5C146.538 64.116 145.386 63.844 144.618 63.844C142.138 63.844 141.61 65.108 141.61 66.436C141.61 67.764 142.138 69.044 144.618 69.044Z" fill="white"/>
<g clip-path="url(#clip1_443_1836)">
<path d="M209.242 -460.58V-467.02L219.482 -469.78L222.802 -469.94V-442.5H216.002V-462.22L209.242 -460.58ZM240.965 -442.34C232.405 -442.34 225.805 -446.7 225.805 -456.22C225.805 -465.78 232.405 -470.14 240.965 -470.14C249.525 -470.14 256.125 -465.78 256.125 -456.22C256.125 -446.7 249.525 -442.34 240.965 -442.34ZM240.965 -463.66C234.765 -463.66 232.645 -460.34 232.645 -456.22C232.645 -452.14 234.765 -448.82 240.965 -448.82C247.205 -448.82 249.285 -452.14 249.285 -456.22C249.285 -460.34 247.205 -463.66 240.965 -463.66ZM273.269 -442.34C264.709 -442.34 258.109 -446.7 258.109 -456.22C258.109 -465.78 264.709 -470.14 273.269 -470.14C281.829 -470.14 288.429 -465.78 288.429 -456.22C288.429 -446.7 281.829 -442.34 273.269 -442.34ZM273.269 -463.66C267.069 -463.66 264.949 -460.34 264.949 -456.22C264.949 -452.14 267.069 -448.82 273.269 -448.82C279.509 -448.82 281.589 -452.14 281.589 -456.22C281.589 -460.34 279.509 -463.66 273.269 -463.66ZM241.31 -422.14C249.87 -422.14 256.79 -417.78 256.79 -408.22C256.79 -398.7 249.67 -394.34 241.19 -394.34C235.27 -394.34 230.51 -395.46 230.51 -395.46L231.55 -401.7C231.55 -401.7 235.95 -400.9 241.19 -400.9C246.11 -400.9 248.59 -402.34 249.51 -405.18C247.39 -404.7 244.47 -404.18 241.79 -404.18C236.03 -404.18 228.07 -405.74 228.07 -412.86C228.07 -419.74 235.51 -422.14 241.31 -422.14ZM241.79 -410.3C244.39 -410.3 247.47 -410.86 249.55 -411.3C248.67 -414.14 246.23 -415.58 241.31 -415.58C236.83 -415.58 234.91 -414.9 234.91 -412.86C234.91 -410.82 237.31 -410.3 241.79 -410.3ZM274.246 -394.34C265.686 -394.34 259.086 -398.7 259.086 -408.22C259.086 -417.78 265.686 -422.14 274.246 -422.14C282.806 -422.14 289.406 -417.78 289.406 -408.22C289.406 -398.7 282.806 -394.34 274.246 -394.34ZM274.246 -415.66C268.046 -415.66 265.926 -412.34 265.926 -408.22C265.926 -404.14 268.046 -400.82 274.246 -400.82C280.486 -400.82 282.566 -404.14 282.566 -408.22C282.566 -412.34 280.486 -415.66 274.246 -415.66ZM241.27 -346.34C236.07 -346.34 228.07 -347.82 228.07 -354.34C228.07 -357.5 229.71 -359.3 231.99 -360.34C229.87 -361.34 228.35 -363.18 228.35 -366.42C228.35 -373.34 236.07 -374.14 241.27 -374.14C246.51 -374.14 254.19 -373.34 254.19 -366.42C254.19 -363.18 252.67 -361.34 250.55 -360.34C252.83 -359.3 254.47 -357.5 254.47 -354.34C254.47 -347.82 246.51 -346.34 241.27 -346.34ZM241.27 -357.5C237.39 -357.5 234.91 -357.3 234.91 -355.06C234.91 -353.22 237.39 -352.9 241.27 -352.9C245.19 -352.9 247.63 -353.22 247.63 -355.06C247.63 -357.3 245.19 -357.5 241.27 -357.5ZM241.27 -367.58C237.39 -367.58 235.19 -367.18 235.19 -365.7C235.19 -363.86 237.39 -363.66 241.27 -363.66C245.19 -363.66 247.35 -363.86 247.35 -365.7C247.35 -367.18 245.19 -367.58 241.27 -367.58ZM271.629 -346.34C263.069 -346.34 256.469 -350.7 256.469 -360.22C256.469 -369.78 263.069 -374.14 271.629 -374.14C280.189 -374.14 286.789 -369.78 286.789 -360.22C286.789 -350.7 280.189 -346.34 271.629 -346.34ZM271.629 -367.66C265.429 -367.66 263.309 -364.34 263.309 -360.22C263.309 -356.14 265.429 -352.82 271.629 -352.82C277.869 -352.82 279.949 -356.14 279.949 -360.22C279.949 -364.34 277.869 -367.66 271.629 -367.66ZM259.564 -326.02L259.004 -319.58C256.404 -313.74 254.124 -307.54 252.364 -299.14L252.204 -298.5H245.164L245.284 -299.1C247.044 -307.5 249.444 -313.66 252.044 -319.5H237.444L238.044 -326.02H259.564ZM275.613 -298.34C267.053 -298.34 260.453 -302.7 260.453 -312.22C260.453 -321.78 267.053 -326.14 275.613 -326.14C284.173 -326.14 290.773 -321.78 290.773 -312.22C290.773 -302.7 284.173 -298.34 275.613 -298.34ZM275.613 -319.66C269.413 -319.66 267.293 -316.34 267.293 -312.22C267.293 -308.14 269.413 -304.82 275.613 -304.82C281.853 -304.82 283.933 -308.14 283.933 -312.22C283.933 -316.34 281.853 -319.66 275.613 -319.66ZM243.43 -250.34C234.87 -250.34 228.07 -254.7 228.07 -264.22C228.07 -273.78 235.03 -278.14 243.11 -278.14C249.03 -278.14 253.11 -276.86 253.11 -276.86L252.07 -270.66C252.07 -270.66 247.71 -271.58 243.11 -271.58C237.95 -271.58 235.91 -270.14 235.19 -267.34C237.35 -267.86 240.35 -268.46 243.07 -268.46C249.23 -268.46 257.07 -266.86 257.07 -259.78C257.07 -252.9 249.59 -250.34 243.43 -250.34ZM243.07 -262.3C240.39 -262.3 237.23 -261.58 235.19 -261.02C235.87 -258.3 237.95 -256.9 243.43 -256.9C248.27 -256.9 250.23 -257.7 250.23 -259.78C250.23 -261.82 247.95 -262.3 243.07 -262.3ZM274.207 -250.34C265.647 -250.34 259.047 -254.7 259.047 -264.22C259.047 -273.78 265.647 -278.14 274.207 -278.14C282.767 -278.14 289.367 -273.78 289.367 -264.22C289.367 -254.7 282.767 -250.34 274.207 -250.34ZM274.207 -271.66C268.007 -271.66 265.887 -268.34 265.887 -264.22C265.887 -260.14 268.007 -256.82 274.207 -256.82C280.447 -256.82 282.527 -260.14 282.527 -264.22C282.527 -268.34 280.447 -271.66 274.207 -271.66ZM228.83 -212.62L230.47 -230.02H250.43L249.87 -223.5H236.63L236.31 -220.06C237.47 -220.26 238.59 -220.38 239.71 -220.38C245.47 -220.38 253.03 -218.74 253.03 -211.62C253.03 -204.5 245.03 -202.34 238.87 -202.34C234.23 -202.34 231.31 -202.98 228.07 -204.26L229.87 -210.42C231.91 -209.66 235.11 -208.9 238.87 -208.9C243.71 -208.9 246.19 -209.58 246.19 -211.62C246.19 -213.3 243.71 -213.78 238.87 -213.78C236.03 -213.78 232.35 -213.14 230.55 -212.62H228.83ZM270.183 -202.34C261.623 -202.34 255.023 -206.7 255.023 -216.22C255.023 -225.78 261.623 -230.14 270.183 -230.14C278.743 -230.14 285.343 -225.78 285.343 -216.22C285.343 -206.7 278.743 -202.34 270.183 -202.34ZM270.183 -223.66C263.983 -223.66 261.863 -220.34 261.863 -216.22C261.863 -212.14 263.983 -208.82 270.183 -208.82C276.423 -208.82 278.503 -212.14 278.503 -216.22C278.503 -220.34 276.423 -223.66 270.183 -223.66ZM228.63 -166.06L243.11 -181.62L247.99 -181.9V-166.06H251.63L251.07 -159.54H247.99V-154.5H241.15V-159.54H228.07V-159.78L228.63 -166.06ZM241.15 -166.06V-170.7L236.95 -166.06H241.15ZM268.23 -154.34C259.67 -154.34 253.07 -158.7 253.07 -168.22C253.07 -177.78 259.67 -182.14 268.23 -182.14C276.79 -182.14 283.39 -177.78 283.39 -168.22C283.39 -158.7 276.79 -154.34 268.23 -154.34ZM268.23 -175.66C262.03 -175.66 259.91 -172.34 259.91 -168.22C259.91 -164.14 262.03 -160.82 268.23 -160.82C274.47 -160.82 276.55 -164.14 276.55 -168.22C276.55 -172.34 274.47 -175.66 268.23 -175.66ZM235.87 -123.7H238.95C243.79 -123.7 245.91 -124.54 245.91 -125.86C245.91 -127.14 243.87 -127.58 239.03 -127.58C235.35 -127.58 230.27 -126.66 230.27 -126.66L229.31 -133.1C229.31 -133.1 233.51 -134.14 239.03 -134.14C245.19 -134.14 252.75 -132.86 252.75 -126.46C252.75 -123.5 251.31 -121.7 249.23 -120.62C251.35 -119.46 252.75 -117.58 252.75 -114.54C252.75 -107.66 244.87 -106.34 238.71 -106.34C232.79 -106.34 228.07 -107.78 228.07 -107.78L229.19 -114.14C229.19 -114.14 233.59 -112.9 238.71 -112.9C243.59 -112.9 245.91 -113.3 245.91 -115.34C245.91 -117.42 243.79 -117.38 238.95 -117.38H235.35L235.87 -123.7ZM269.91 -106.34C261.35 -106.34 254.75 -110.7 254.75 -120.22C254.75 -129.78 261.35 -134.14 269.91 -134.14C278.47 -134.14 285.07 -129.78 285.07 -120.22C285.07 -110.7 278.47 -106.34 269.91 -106.34ZM269.91 -127.66C263.71 -127.66 261.59 -124.34 261.59 -120.22C261.59 -116.14 263.71 -112.82 269.91 -112.82C276.15 -112.82 278.23 -116.14 278.23 -120.22C278.23 -124.34 276.15 -127.66 269.91 -127.66ZM235.51 -65.02H252.31L251.75 -58.5H228.07L228.67 -65.22C229.31 -72.42 234.43 -73.9 240.75 -75.34C243.87 -76.06 245.23 -76.78 245.23 -78.14C245.23 -79.1 243.91 -79.58 239.43 -79.58C235.55 -79.58 231.59 -78.62 231.59 -78.62L230.11 -85.06C231.83 -85.62 235.79 -86.14 239.43 -86.14C245.59 -86.14 252.07 -84.26 252.07 -78.22C252.07 -72.1 247.87 -70.26 241.87 -68.9C236.39 -67.66 235.75 -67.5 235.51 -65.02ZM268.973 -58.34C260.413 -58.34 253.813 -62.7 253.813 -72.22C253.813 -81.78 260.413 -86.14 268.973 -86.14C277.533 -86.14 284.133 -81.78 284.133 -72.22C284.133 -62.7 277.533 -58.34 268.973 -58.34ZM268.973 -79.66C262.773 -79.66 260.653 -76.34 260.653 -72.22C260.653 -68.14 262.773 -64.82 268.973 -64.82C275.213 -64.82 277.293 -68.14 277.293 -72.22C277.293 -76.34 275.213 -79.66 268.973 -79.66ZM237.484 -28.58V-35.02L247.724 -37.78L251.044 -37.94V-10.5H244.244V-30.22L237.484 -28.58ZM269.207 -10.34C260.647 -10.34 254.047 -14.7 254.047 -24.22C254.047 -33.78 260.647 -38.14 269.207 -38.14C277.767 -38.14 284.367 -33.78 284.367 -24.22C284.367 -14.7 277.767 -10.34 269.207 -10.34ZM269.207 -31.66C263.007 -31.66 260.887 -28.34 260.887 -24.22C260.887 -20.14 263.007 -16.82 269.207 -16.82C275.447 -16.82 277.527 -20.14 277.527 -24.22C277.527 -28.34 275.447 -31.66 269.207 -31.66ZM271.473 37.66C262.913 37.66 256.313 33.3 256.313 23.78C256.313 14.22 262.913 9.86 271.473 9.86C280.033 9.86 286.633 14.22 286.633 23.78C286.633 33.3 280.033 37.66 271.473 37.66ZM271.473 16.34C265.273 16.34 263.153 19.66 263.153 23.78C263.153 27.86 265.273 31.18 271.473 31.18C277.713 31.18 279.793 27.86 279.793 23.78C279.793 19.66 277.713 16.34 271.473 16.34Z" fill="white"/>
<path d="M317.388 -457.62V-451.62H312.108V-446.34H306.108V-451.62H300.828V-457.62H306.108V-462.9H312.108V-457.62H317.388ZM318.365 -409.62V-403.62H313.085V-398.34H307.085V-403.62H301.805V-409.62H307.085V-414.9H313.085V-409.62H318.365ZM315.748 -361.62V-355.62H310.468V-350.34H304.468V-355.62H299.188V-361.62H304.468V-366.9H310.468V-361.62H315.748ZM319.732 -313.62V-307.62H314.452V-302.34H308.452V-307.62H303.172V-313.62H308.452V-318.9H314.452V-313.62H319.732ZM318.326 -265.62V-259.62H313.046V-254.34H307.046V-259.62H301.766V-265.62H307.046V-270.9H313.046V-265.62H318.326ZM314.302 -217.62V-211.62H309.022V-206.34H303.022V-211.62H297.742V-217.62H303.022V-222.9H309.022V-217.62H314.302ZM312.349 -169.62V-163.62H307.069V-158.34H301.069V-163.62H295.789V-169.62H301.069V-174.9H307.069V-169.62H312.349ZM314.029 -121.62V-115.62H308.749V-110.34H302.749V-115.62H297.469V-121.62H302.749V-126.9H308.749V-121.62H314.029ZM313.091 -73.62V-67.62H307.811V-62.34H301.811V-67.62H296.531V-73.62H301.811V-78.9H307.811V-73.62H313.091ZM313.326 -25.62V-19.62H308.046V-14.34H302.046V-19.62H296.766V-25.62H302.046V-30.9H308.046V-25.62H313.326ZM315.591 22.38V28.38H310.311V33.66H304.311V28.38H299.031V22.38H304.311V17.1H310.311V22.38H315.591Z" fill="#FF540B"/>
</g>
<path d="M218.416 67.476V70.5H216.8V59.476H221.136C223.888 59.476 226.384 60.372 226.384 63.508C226.384 66.644 223.888 67.476 221.136 67.476H218.416ZM218.416 65.988H221.136C223.36 65.988 224.704 65.364 224.704 63.508C224.704 61.652 223.36 60.964 221.136 60.964H218.416V65.988ZM232.157 62.324C233.309 62.324 233.885 62.516 233.885 62.516L233.533 64.02C233.533 64.02 232.893 63.844 231.965 63.844C231.197 63.844 229.917 64.132 229.197 64.532V70.5H227.597V62.564L228.941 62.452L229.053 63.108C229.789 62.772 231.037 62.324 232.157 62.324ZM238.761 70.564C235.913 70.564 234.009 68.9 234.009 66.436C234.009 63.988 235.913 62.324 238.761 62.324C241.609 62.324 243.529 63.988 243.529 66.436C243.529 68.9 241.609 70.564 238.761 70.564ZM238.761 63.86C235.945 63.86 235.641 65.7 235.641 66.436C235.641 67.172 235.945 69.028 238.761 69.028C241.577 69.028 241.881 67.172 241.881 66.436C241.881 65.7 241.577 63.86 238.761 63.86ZM253.313 59.492V70.5H251.969L251.857 69.812C251.073 70.212 249.937 70.564 248.817 70.564C246.081 70.564 244.353 68.9 244.353 66.436C244.353 63.988 246.033 62.324 248.785 62.324C249.825 62.324 250.961 62.724 251.713 63.044V59.396L253.313 59.492ZM248.977 69.044C249.985 69.044 251.105 68.676 251.713 68.436V64.5C250.897 64.116 249.745 63.844 248.977 63.844C246.497 63.844 245.969 65.108 245.969 66.436C245.969 67.764 246.497 69.044 248.977 69.044ZM256.541 62.388V66.884C256.541 68.26 256.925 69.044 259.213 69.044C259.981 69.044 261.261 68.788 262.109 68.404V62.388H263.709V70.5H262.365L262.237 69.796C261.469 70.132 260.141 70.564 259.037 70.564C256.477 70.564 254.925 69.236 254.925 66.884V62.388H256.541ZM269.62 69.044C270.692 69.044 271.572 68.692 272.148 68.452L272.756 69.812C271.94 70.244 270.9 70.564 269.62 70.564C266.772 70.564 264.916 68.9 264.916 66.436C264.916 63.988 266.772 62.324 269.62 62.324C270.82 62.324 271.908 62.66 272.612 62.98L271.988 64.388C271.396 64.132 270.404 63.844 269.62 63.844C267.284 63.844 266.532 65.268 266.532 66.436C266.532 67.62 267.284 69.044 269.62 69.044ZM275.967 60.564V62.452H279.535L279.391 63.94H275.967V67.636C275.967 68.82 276.591 69.044 277.951 69.044C278.879 69.044 279.615 68.916 279.615 68.916L279.775 70.404C279.775 70.404 278.911 70.564 277.855 70.564C276.159 70.564 274.367 70.1 274.367 67.636V63.94H273.103L273.231 62.452H274.447L274.975 60.676L275.967 60.564ZM286.354 68.996H293.298L293.154 70.5H284.738V59.476H286.354V68.996ZM294.503 70.5V62.564L296.119 62.468V70.5H294.503ZM296.311 60.212C296.311 60.756 295.863 61.22 295.303 61.22C294.759 61.22 294.311 60.756 294.311 60.212C294.311 59.652 294.759 59.204 295.303 59.204C295.863 59.204 296.311 59.652 296.311 60.212ZM302.074 70.5H299.994L296.906 62.564L298.666 62.484L301.018 69.028L303.402 62.548L305.146 62.468L302.074 70.5ZM313.802 66.052C313.802 66.66 313.738 67.316 313.738 67.316L307.066 67.284C307.338 68.26 308.154 69.044 309.978 69.044C311.05 69.044 312.138 68.82 312.794 68.596L313.258 70.004C312.57 70.324 311.21 70.564 309.946 70.564C307.194 70.564 305.338 68.9 305.338 66.436C305.338 63.988 307.098 62.324 309.85 62.324C311.898 62.324 313.802 63.54 313.802 66.052ZM309.898 63.844C308.026 63.844 307.21 64.74 307.002 65.796L312.17 65.764C312.154 64.372 311.178 63.844 309.898 63.844Z" fill="white"/>
<defs>
<clipPath id="clip0_443_1836">
<rect width="149" height="46" fill="white" transform="translate(0 0.5)"/>
</clipPath>
<clipPath id="clip1_443_1836">
<rect width="142" height="46" fill="white" transform="translate(180 0.5)"/>
</clipPath>
</defs>
</svg>
