<svg width="63" height="44" viewBox="0 0 63 44" fill="none" xmlns="http://www.w3.org/2000/svg">
<path d="M61.3288 6.88451C60.6091 4.17461 58.4886 2.04039 55.7963 1.3161C50.9162 0 31.3475 0 31.3475 0C31.3475 0 11.779 0 6.89876 1.3161C4.2064 2.0405 2.08592 4.17461 1.36622 6.88451C0.0585938 11.7964 0.0585938 22.0445 0.0585938 22.0445C0.0585938 22.0445 0.0585938 32.2926 1.36622 37.2044C2.08592 39.9143 4.2064 41.9596 6.89876 42.6839C11.779 44 31.3475 44 31.3475 44C31.3475 44 50.9161 44 55.7963 42.6839C58.4886 41.9596 60.6091 39.9143 61.3288 37.2044C62.6365 32.2926 62.6365 22.0445 62.6365 22.0445C62.6365 22.0445 62.6365 11.7964 61.3288 6.88451ZM24.9475 31.349V12.7399L41.303 22.0447L24.9475 31.349Z" fill="white"/>
</svg>
